<svg width="102" height="106" fill="none" xmlns="http://www.w3.org/2000/svg"><path d="M76.88 93.57H30.411a3.656 3.656 0 01-3.574-4.483l11.47-50.48c.39-1.657 1.853-2.86 3.575-2.86H88.35a3.656 3.656 0 013.574 4.483L80.421 90.71c-.325 1.657-1.82 2.86-3.542 2.86z" fill="#E9E8FA"/><path d="M66.451 81.31H19.984a3.656 3.656 0 01-3.574-4.482l11.47-50.48c.39-1.657 1.852-2.859 3.575-2.859h46.467a3.656 3.656 0 013.574 4.483l-11.503 50.48c-.325 1.657-1.82 2.859-3.542 2.859z" fill="#fff" stroke="#293589" stroke-width=".872" stroke-miterlimit="10"/><path d="M70.383 32.65H35.354M68.92 39.406H33.925M67.133 46.748H32.137M65.119 54.121H30.122M63.104 61.463H28.075M43.413 68.837H25.898" stroke="#C6CBDE" stroke-width=".872" stroke-miterlimit="10" stroke-linecap="round"/><path d="M46.175 49.834H31.91c-1.625 0-2.86-1.527-2.47-3.119l3.607-15.787a2.533 2.533 0 012.47-1.982H49.78c1.625 0 2.86 1.527 2.47 3.119l-3.607 15.787a2.533 2.533 0 01-2.47 1.982z" fill="#E9E8FA"/><path d="M33.08 18.227l4.841 6.529 1.072-4.775-4.127-4.84" fill="#4A6EE0"/><path d="M34.152 13.062H23.038a2.153 2.153 0 00-2.112 1.689l-3.769 16.567c-.292 1.332.715 2.63 2.112 2.63h15.078a2.153 2.153 0 002.112-1.688l2.86-12.507-5.167-6.691z" fill="#3F8DFD" stroke="#293589" stroke-width=".872" stroke-miterlimit="10"/><path d="M35.094 23.392h-12.9M34.12 26.543H21.478M28.465 29.856h-7.701" stroke="#fff" stroke-width=".872" stroke-miterlimit="10" stroke-linecap="round"/><path d="M33.047 17.155l1.105-4.093 5.134 6.659-4.42-.227a1.886 1.886 0 01-1.82-2.34z" fill="#79A8F2" stroke="#293589" stroke-width=".872" stroke-miterlimit="10" stroke-linejoin="round"/><path d="M75.988 53.002a3.024 3.024 0 00-.785-.117h-8.875c-1.286 0-2.428.894-2.714 2.142l-3.64 16.103c-.405 1.719.927 3.343 2.712 3.343h8.304l4.998-21.47z" fill="#E9E8FA"/><path d="M76.808 70.588H58.483c-1.785 0-3.094-1.647-2.713-3.342l3.641-16.104A2.771 2.771 0 0162.124 49H80.45c1.785 0 3.094 1.648 2.713 3.343l-3.641 16.103a2.786 2.786 0 01-2.714 2.142z" fill="#fff" stroke="#293589" stroke-width=".752" stroke-miterlimit="10"/><path d="M76.832 72.142a.472.472 0 00-.333-.14.852.852 0 00-.238.046l-2.047.942c-.071.047-.166.047-.238.047-.142 0-.261-.047-.333-.141l.524.565a.472.472 0 00.333.141c.071 0 .143-.023.238-.047l2.047-.942c.071-.047.166-.047.238-.047.071 0 .119.024.19.047.048.024.119.07.143.094l-.524-.565zM81.925 69.506l-.523-.565c.214.235.119.659-.215.8l-2.046.942c-.262.117-.405.423-.286.659l.952 2.378c.095.235-.024.541-.285.659l-.5.235-.5.236a.852.852 0 01-.238.047c-.119 0-.262-.047-.333-.141l.523.565a.472.472 0 00.334.14c.071 0 .142-.023.238-.046l.5-.236.5-.235c.26-.118.404-.424.285-.66l-.952-2.377c-.096-.236.023-.542.285-.66l2.047-.941c.333-.141.452-.565.214-.8z" fill="#293589" stroke="#293589" stroke-width=".752" stroke-miterlimit="10"/><path d="M74.524 62.796c.119 0 .214.047.31.118l6.544 6.003c.262.235.143.66-.19.824l-2.047.942c-.262.117-.405.423-.286.659l.952 2.378c.095.235-.024.541-.285.659l-.5.235-.5.236a.855.855 0 01-.238.047.436.436 0 01-.428-.283l-.952-2.377a.47.47 0 00-.429-.283.855.855 0 00-.238.047l-2.046.942c-.072.047-.167.047-.238.047-.262 0-.476-.188-.453-.471l.429-9.252c.047-.236.333-.471.595-.471z" fill="#fff" stroke="#293589" stroke-width=".752" stroke-miterlimit="10"/><path d="M76.023 58.982H63.505c-1.214 0-2.118-1.13-1.857-2.284l.5-2.142c.19-.847.976-1.46 1.857-1.46h12.518c1.214 0 2.118 1.13 1.856 2.284l-.5 2.142c-.19.872-.975 1.46-1.856 1.46z" fill="#41D9B5"/></svg>