<svg width="16" height="16" viewBox="0 0 16 16" fill="none" xmlns="http://www.w3.org/2000/svg">
<path d="M15.9476 7.08583C15.7424 5.30177 14.9429 3.63865 13.6778 2.36412C12.4126 1.08959 10.7555 0.277797 8.97297 0.0593872C7.19048 -0.159022 5.38634 0.228657 3.85092 1.16003C2.31551 2.09141 1.13811 3.5123 0.508234 5.19403C-0.121642 6.87577 -0.167363 8.72052 0.37843 10.4314C0.924222 12.1423 2.02978 13.6197 3.51718 14.626C5.00457 15.6323 6.78729 16.1089 8.57841 15.9791C10.3695 15.8492 12.0649 15.1205 13.3916 13.9102L12.4176 12.8425C11.3305 13.8342 9.94147 14.4312 8.47392 14.5376C7.00637 14.644 5.54571 14.2535 4.32701 13.429C3.10832 12.6045 2.20248 11.3939 1.75529 9.99215C1.3081 8.59036 1.34556 7.07886 1.86165 5.70094C2.37773 4.32302 3.34243 3.15881 4.60047 2.39569C5.85851 1.63257 7.33672 1.31493 8.7972 1.49388C10.2577 1.67284 11.6155 2.33798 12.652 3.38226C13.6886 4.42654 14.3437 5.78922 14.5118 7.25098L15.9476 7.08583Z" fill="#4A6EE0"/>
</svg>
