<svg width="16" height="16" xmlns="http://www.w3.org/2000/svg" xmlns:xlink="http://www.w3.org/1999/xlink"><defs><circle id="a" cx="8" cy="8" r="8"/><path d="M4 8a5 5 0 1 1 8 0 5 5 0 1 1-8 0zm0 0a4.992 4.992 0 0 0 4 2 4.992 4.992 0 0 0 4-2 4.992 4.992 0 0 0-4-2 4.992 4.992 0 0 0-4 2z" id="d"/><filter x="-75%" y="-46.9%" width="250%" height="193.8%" filterUnits="objectBoundingBox" id="c"><feOffset in="SourceAlpha" result="shadowOffsetOuter1"/><feGaussianBlur stdDeviation="2.5" in="shadowOffsetOuter1" result="shadowBlurOuter1"/><feColorMatrix values="0 0 0 0 1 0 0 0 0 1 0 0 0 0 1 0 0 0 1 0" in="shadowBlurOuter1"/></filter></defs><g fill="none" fill-rule="evenodd"><mask id="b" fill="#fff"><use xlink:href="#a"/></mask><use fill="#B9F9EA" xlink:href="#a"/><g mask="url(#b)"><use fill="#000" filter="url(#c)" xlink:href="#d"/><use fill="#0FDCAC" xlink:href="#d"/></g><path d="M4 8a4.992 4.992 0 0 1 4-2c1.636 0 3.088.786 4 2a4.992 4.992 0 0 1-4 2 4.992 4.992 0 0 1-4-2z" fill="#C0F9EC" mask="url(#b)"/></g></svg>