<svg width="82" height="80" viewBox="0 0 82 80" fill="none" xmlns="http://www.w3.org/2000/svg">
  <g clip-path="url(#clip0)">
    <rect width="82" height="80" fill="white" />
    <path
      d="M1.80469 29.5949C1.80469 15.3358 13.364 3.77649 27.6231 3.77649C41.8822 3.77649 53.4416 15.3358 53.4416 29.5949V87.7343H1.80469V29.5949Z"
      fill="#99C2FF" />
    <path
      d="M25.6212 14.9043C23.5261 14.9372 21.5629 13.9393 19.7855 12.8338C17.8912 11.6567 16.0239 10.2555 15.0168 8.26866C14.0097 6.28185 14.1176 3.58098 15.8021 2.12C16.1648 1.80629 16.5934 1.55532 17.064 1.46868C17.5375 1.38204 18.0261 1.46271 18.4937 1.57026C23.1335 2.64284 26.7722 6.44617 28.7474 10.7664C29.1011 11.5402 29.4098 12.4365 29.0711 13.2163"
      fill="#303A68" />
    <path
      d="M25.6212 14.9043C23.5261 14.9372 21.5629 13.9393 19.7855 12.8338C17.8912 11.6567 16.0239 10.2555 15.0168 8.26866C14.0097 6.28185 14.1176 3.58098 15.8021 2.12C16.1648 1.80629 16.5934 1.55532 17.064 1.46868C17.5375 1.38204 18.0261 1.46271 18.4937 1.57026C23.1335 2.64284 26.7722 6.44617 28.7474 10.7664C29.1011 11.5402 29.4098 12.4365 29.0711 13.2163"
      stroke="#313B68" stroke-width="0.575586" stroke-miterlimit="10" />
    <path
      d="M-6.62629 60.484C0.621159 54.5504 8.43509 49.3011 16.6746 44.8345C19.2253 43.4512 22.1927 42.1097 24.9322 43.0717C27.1801 43.8635 28.6248 45.9967 29.9077 48.0014C34.5415 55.2376 39.2592 62.671 41.0966 71.0574C41.7739 74.1437 41.9598 77.6542 40.0565 80.1818C38.6478 82.0551 36.3519 83.0261 34.1219 83.7611C27.2821 86.0138 19.651 86.7786 12.952 84.1405C9.55608 82.802 6.54081 80.6509 3.77131 78.2757C0.495272 75.4672 -2.49902 72.2973 -4.8489 68.6822C-6.35054 66.3727 -7.61539 63.7376 -7.43256 60.9919"
      fill="#313B68" />
    <path
      d="M25.1538 31.9356C25.1238 31.84 25.0968 31.7444 25.0669 31.6488C24.5214 29.8293 23.9908 27.9889 23.847 26.0947C23.7001 24.2005 23.9639 22.2286 24.917 20.5854C26.1129 18.5239 28.3999 17.1316 30.7857 17.0151L36.9062 19.1185C38.165 20.7348 38.5787 22.8292 39.337 24.7293C39.8615 26.0439 40.5659 27.2898 41.4261 28.4191C42.0106 29.187 42.67 29.91 43.0836 30.7794C43.1945 31.0124 43.2874 31.2783 43.2065 31.5204C43.0806 31.8938 42.622 32.0283 42.2294 32.0402C41.8367 32.0522 41.4081 32.0073 41.0784 32.2225C40.8086 32.3957 40.6648 32.7065 40.5509 33.0022C40.0473 34.2899 39.8046 35.6702 39.265 36.946C38.7255 38.2217 37.7994 39.4377 36.4686 39.8321C34.9429 40.2862 33.3514 39.5662 31.9337 38.8103C30.3151 40.576 26.9791 45.2727 25.4775 47.14C25.0099 47.7196 24.4854 48.344 23.7511 48.4785C23.3434 48.5532 22.9208 48.4635 22.5252 48.338C20.5919 47.7315 18.9404 46.2855 18.0862 44.4541C18.0023 44.2748 17.9243 44.0866 17.9273 43.8894C17.9273 43.6175 18.0772 43.3695 18.2211 43.1395C19.9385 40.3669 23.4304 34.7112 25.1538 31.9356Z"
      fill="white" stroke="#313B68" stroke-width="0.575586" stroke-miterlimit="10" />
    <path
      d="M38.0963 51.6218L48.0802 62.2579C49.4979 63.6622 49.477 65.9686 47.9963 67.3071C46.8274 68.3648 44.8581 69.2581 41.5371 69.2581C33.3725 69.2581 29.9316 54.3167 29.9316 54.3167"
      fill="#68DEC2" />
    <path
      d="M38.0963 51.6218L48.0802 62.2579C49.4979 63.6622 49.477 65.9686 47.9963 67.3071C46.8274 68.3648 44.8581 69.2581 41.5371 69.2581C33.3725 69.2581 29.9316 54.3167 29.9316 54.3167"
      stroke="#313B68" stroke-width="0.575586" stroke-miterlimit="10" />
    <path
      d="M29.8297 32.444C28.8406 32.0974 27.3839 31.1981 26.7125 30.3675C26.158 29.6864 25.7414 28.7661 25.9991 27.8997C26.2569 27.0273 27.24 26.4626 28.0733 26.7106C28.8975 26.9556 29.3861 27.7981 29.9975 28.4196C30.0754 28.5002 30.1744 28.5839 30.2853 28.5719C30.4681 28.554 30.54 28.309 30.525 28.1178C30.4771 27.4067 29.9016 26.7285 30.1564 26.0623C30.3152 25.653 30.7349 25.4259 31.1335 25.2765C32.4133 24.7985 33.7891 24.7208 35.1199 24.4489C36.4507 24.1741 37.8264 23.6423 38.6567 22.5129C39.4869 21.3866 39.6188 19.812 39.1992 18.4795C38.7796 17.147 37.8624 16.0416 36.7984 15.1961C35.1049 13.8546 32.9918 13.1077 30.8488 13.03C28.7057 12.9523 26.5446 13.5349 24.6593 14.6374C22.5283 15.8803 20.7179 17.8342 19.8727 20.2214C18.7517 23.3853 19.4381 26.9974 21.0986 29.8387C22.0157 31.4073 23.2746 32.8324 24.9201 33.4807C26.5656 34.1261 28.6427 33.8392 29.8297 32.444Z"
      fill="#303A68" stroke="#313B68" stroke-width="0.575586" stroke-miterlimit="10" />
    <path
      d="M21.0837 47.7496C19.5881 47.2118 18.4431 46.0137 17.3881 44.8276C15.8595 43.1097 14.3518 41.2334 13.8723 38.9897C13.3927 36.7459 14.2709 34.0451 16.399 33.1637C17.9965 32.5004 19.8788 33.0113 21.3115 33.9823C22.7442 34.9533 23.8323 36.3307 24.9952 37.6094C27.5339 40.4088 30.5462 42.8438 34.023 44.3317C35.5397 44.98 37.1312 45.4431 38.6359 46.1183C40.1405 46.7935 41.5912 47.7078 42.5443 49.0492C43.4975 50.3907 43.8721 52.2252 43.1768 53.716C42.8561 54.4062 42.3285 54.9858 41.7261 55.4548C40.0326 56.7634 37.7667 57.1757 35.6356 56.9457C33.5045 56.7156 31.4813 55.903 29.5571 54.9619C25.7086 53.0826 22.1268 50.6626 18.9467 47.7974"
      fill="#68DEC2" />
    <path
      d="M21.0837 47.7496C19.5881 47.2118 18.4431 46.0137 17.3881 44.8276C15.8595 43.1097 14.3518 41.2334 13.8723 38.9897C13.3927 36.7459 14.2709 34.0451 16.399 33.1637C17.9965 32.5004 19.8788 33.0113 21.3115 33.9823C22.7442 34.9533 23.8323 36.3307 24.9952 37.6094C27.5339 40.4088 30.5462 42.8438 34.023 44.3317C35.5397 44.98 37.1312 45.4431 38.6359 46.1183C40.1405 46.7935 41.5912 47.7078 42.5443 49.0492C43.4975 50.3907 43.8721 52.2252 43.1768 53.716C42.856 54.4062 42.3285 54.9858 41.7261 55.4548C40.0326 56.7634 37.7667 57.1757 35.6356 56.9457C33.5045 56.7156 31.4813 55.903 29.5571 54.9619C25.7086 53.0826 22.1268 50.6626 18.9467 47.7974"
      stroke="#313B68" stroke-width="0.575586" stroke-miterlimit="10" />
    <path
      d="M17.061 46.6477C19.6567 45.0583 23.0736 46.2354 25.5943 47.9414C32.3472 52.5066 36.1837 60.2088 41.8636 66.0498C42.1993 66.3933 42.6819 66.7608 43.1135 66.5487C43.3503 66.4322 43.4792 66.1722 43.5871 65.9332C45.6222 61.4069 51.9225 54.5352 55.2345 47.9593C59.5266 47.6157 63.2283 52.7545 67.8142 55.6377C65.3054 61.9656 51.7277 85.1919 51.7277 85.1919C51.7277 85.1919 36.2797 101.651 22.3243 78.9984"
      fill="#313B68" />
    <path
      d="M69.7151 33.912C75.1745 33.912 79.6002 29.5005 79.6002 24.0586C79.6002 18.6168 75.1745 14.2052 69.7151 14.2052C64.2558 14.2052 59.8301 18.6168 59.8301 24.0586C59.8301 29.5005 64.2558 33.912 69.7151 33.912Z"
      fill="#68DEC2" stroke="#313B68" stroke-width="0.575586" stroke-miterlimit="10" />
    <path d="M65.7109 24.8299L68.3875 27.4979L73.7107 22.1947" stroke="white" stroke-width="1.72676"
      stroke-miterlimit="10" stroke-linecap="round" stroke-linejoin="round" />
    <path d="M77.1279 60.8305L78.612 62.3098L81.5635 59.3694" stroke="white" stroke-width="0.863379"
      stroke-miterlimit="10" stroke-linecap="round" stroke-linejoin="round" />
    <path
      d="M65.6774 37.0939C65.6474 37.0401 65.2697 36.35 64.7842 35.7196C64.2986 35.0892 63.4744 35.0473 63.6842 35.866C64.0169 37.3329 62.8659 40.1443 61.7959 43.1798C61.2833 44.6318 60.6479 46.5708 61.3673 47.4761"
      fill="white" />
    <path
      d="M65.6774 37.0939C65.6474 37.0401 65.2697 36.35 64.7842 35.7196C64.2986 35.0892 63.4744 35.0473 63.6842 35.866C64.0169 37.3329 62.8659 40.1443 61.7959 43.1798C61.2833 44.6318 60.6479 46.5708 61.3673 47.4761"
      stroke="#313B68" stroke-width="0.575586" stroke-miterlimit="10" />
    <path
      d="M67.6647 38.9454C68.2102 37.9386 72.9459 35.8741 74.1508 38.5391C74.3427 38.9604 74.6244 40.0568 74.2288 41.3356C73.8361 42.6143 68.9535 48.4941 68.9805 48.5359C69.0075 48.5807 63.6363 54.2842 63.6363 54.2842L61.2415 56.6953L57.375 54.6756L58.2562 51.7955C59.4761 48.7839 63.2107 41.1623 64.6674 38.0133C66.1241 34.8642 74.6634 26.5196 75.05 26.3643C75.4367 26.2089 75.9492 28.7694 73.8331 31.5479C72.5113 33.2867 69.4451 37.7085 69.4451 37.7085"
      fill="white" />
    <path
      d="M67.6647 38.9454C68.2102 37.9386 72.9459 35.8741 74.1508 38.5391C74.3427 38.9604 74.6244 40.0568 74.2288 41.3356C73.8361 42.6143 68.9535 48.4941 68.9805 48.5359C69.0075 48.5807 63.6363 54.2842 63.6363 54.2842L61.2415 56.6953L57.375 54.6756L58.2562 51.7955C59.4761 48.7839 63.2107 41.1623 64.6674 38.0133C66.1241 34.8642 74.6634 26.5196 75.05 26.3643C75.4367 26.2089 75.9492 28.7694 73.8331 31.5479C72.5113 33.2867 69.4451 37.7085 69.4451 37.7085"
      stroke="#313B68" stroke-width="0.575586" stroke-miterlimit="10" />
    <path
      d="M68.3541 42.1217C68.9835 41.4764 71.7021 39.4328 74.3517 40.604C75.125 40.9476 75.4847 43.0569 74.4326 44.5597C73.1977 44.5059 70.9588 48.3092 70.9588 48.3092C70.9588 48.3092 68.1743 50.4962 66.0732 52.9581C64.4726 54.8343 63.4446 57.0751 63.3037 57.3978C62.977 58.1417 60.3604 55.6589 60.3604 55.6589"
      fill="white" />
    <path
      d="M68.3541 42.1217C68.9835 41.4764 71.7021 39.4328 74.3517 40.604C75.125 40.9476 75.4847 43.0569 74.4326 44.5597C73.1977 44.5059 70.9588 48.3092 70.9588 48.3092C70.9588 48.3092 68.1743 50.4962 66.0732 52.9581C64.4726 54.8343 63.4446 57.0751 63.3037 57.3978C62.977 58.1417 60.3604 55.6589 60.3604 55.6589"
      stroke="#313B68" stroke-width="0.575586" stroke-miterlimit="10" />
    <path
      d="M72.3136 44.4362C73.4376 43.5787 74.8733 43.0977 74.7204 44.9142C73.9951 47.1072 72.6493 47.2626 71.1626 47.9677C70.5422 49.2793 69.9398 50.4146 68.7258 51.1286C68.0904 51.5021 67.2122 51.5678 66.2771 51.768C65.1081 49.7603 65.9084 48.2425 65.9084 48.2425"
      fill="white" />
    <path
      d="M69.8618 44.1499C71.1626 43.409 73.9261 42.0496 74.4866 43.5285C75.0501 45.0223 74.8073 46.5461 71.3395 47.9473"
      stroke="#313B68" stroke-width="0.575586" stroke-miterlimit="10" />
    <path
      d="M72.898 45.4888C72.1576 45.5455 70.4132 50.8397 68.1443 51.4671C65.8783 52.0945 64.7603 55.2585 64.5835 55.5692"
      stroke="#313B68" stroke-width="0.575586" stroke-miterlimit="10" />
    <path
      d="M45.1011 63.0054C46.4289 63.3221 48.8986 58.745 52.7711 52.3752C56.3709 45.88 55.2379 47.9534 55.2379 47.9534C58.1962 48.6287 64.6434 50.8724 67.8175 55.6318C64.7273 63.2982 60.8129 69.6949 55.0791 69.5485C48.9496 68.3594 48.6679 66.5458 48.6679 66.5458"
      fill="#313B68" />
    <path
      d="M60.3908 124.203C60.3908 153.707 87.2918 77.1918 57.6906 77.1918C26.8065 82.5574 -5.04604 61.2616 -5.04604 31.7552C-5.04604 2.24876 -28.5298 99.0707 1.06844 99.0707C30.6667 99.0707 60.3908 94.6997 60.3908 124.203Z"
      fill="white" />
  </g>
  <defs>
    <clipPath id="clip0">
      <rect width="82" height="80" fill="white" />
    </clipPath>
  </defs>
</svg>